<svg xmlns="http://www.w3.org/2000/svg" fill="none" viewBox="0 0 1200 231">
  <path fill="currentColor" d="M86.56 54.639c1.519 0 8.202 17.3 14.884 38.548 6.68 21.549 12.45 40.671 13.059 42.497.911 3.036-6.076 3.643-28.55 3.036-17.613-.304-29.456-1.82-29.157-3.64.304-1.822 6.378-20.341 13.668-41.893C77.449 71.94 84.738 54.64 86.56 54.64"/>
  <path fill="currentColor" fill-rule="evenodd" d="M171.602 231H0V.302h172.21zM85.952 22.159c-3.644-.607-7.592 1.214-9.414 4.553-1.52 3.038-18.225 44.015-36.752 91.367-18.527 47.05-33.712 87.119-33.712 88.637 0 1.821 4.86 2.731 10.933 2.428 10.934-.911 11.24-1.518 19.137-22.766 4.252-11.837 8.807-22.763 10.022-23.979 1.215-1.518 19.439-2.733 40.092-2.733 35.23 0 38.268.607 41.002 6.071 1.519 3.34 6.074 14.267 10.022 24.284 6.682 17.605 7.593 18.212 18.223 19.123 6.378.303 11.541-.304 11.541-1.518-.002-1.524-11.238-29.751-24.6-63.138-13.667-33.39-30.374-74.37-37.36-91.065-9.719-23.676-13.97-30.657-19.134-31.264" clip-rule="evenodd"/>
  <path fill="currentColor" d="M231.435 44.015c.911-1.822 6.986-3.037 13.668-2.733 6.377.303 14.881.606 18.525.91 3.949 0 10.934 4.251 16.097 9.411 6.986 6.982 9.112 11.839 9.112 21.249-.001 6.678-1.519 15.481-3.038 19.73-1.822 4.25-7.289 9.714-12.148 12.143-5.164 2.428-17.011 4.553-44.04 4.553V78.01c.304-16.996.913-32.474 1.824-33.995"/>
  <path fill="currentColor" fill-rule="evenodd" d="M346.241 231H185.269V.302h160.972zm-138.193-22.766 21.261.607c.607-52.21 1.216-69.817 1.216-72.549.304-4.249 3.037-5.463 11.541-5.463 6.378.303 14.579 1.82 17.92 3.945 3.645 2.125 10.021 7.893 14.273 12.75 3.948 4.857 12.757 18.517 18.831 30.355 6.378 11.838 13.669 23.677 16.402 26.409 2.734 3.035 9.719 5.16 16.097 5.464h11.54c-19.741-36.426-28.244-51.907-32.193-57.675-3.644-5.767-10.022-14.874-14.578-19.731-6.985-8.195-7.291-9.411-2.432-11.839 2.734-1.518 8.505-6.374 12.757-10.927s9.113-13.051 10.936-18.515c1.822-6.375 2.123-15.786.605-23.982-1.519-7.588-5.466-17.91-8.806-22.766-3.341-5.16-10.631-11.836-15.794-14.872-7.897-4.553-16.705-6.072-44.95-6.679l-35.536-.91zM507.213 231H358.39V.302h148.823zM365.983 42.8h56.188v165.434h22.779V42.799h56.188l-1.518-19.73-134.85-.608z" clip-rule="evenodd"/>
  <path fill="currentColor" d="M611.996 60.71c.003.166.303 17.71.303 39.461 0 21.552-.608 39.461-1.519 39.764-.92.304-13.673.607-28.245.91-14.572 0-26.415-.302-26.425-1.212 0-.911 12.453-18.823 27.943-40.375 15.186-21.248 27.639-38.548 27.943-38.548"/>
  <path fill="currentColor" fill-rule="evenodd" d="M662.11 231H520.88L520.272.302H662.11zM634.167 22.766c-16.4-1.214-20.956 3.946-61.047 60.102-43.431 60.71-44.041 61.621-39.789 69.817 3.037 6.07 6.683 8.498 12.757 8.499 4.556.303 21.261.304 37.055.607h28.853c-.304 31.265.001 41.89.608 44.015.608 2.428 4.861 3.643 11.238 3.035l10.325-.607c0-26.104.305-36.425.306-40.372.303-5.16 1.821-6.375 6.376-5.161 3.341.607 7.289-.303 8.504-2.427 1.519-2.125 2.429-7.286 2.429-11.232-.304-5.768-1.822-7.589-6.985-7.589-3.341 0-7.593-1.216-9.111-2.733-1.215-1.226-2.127-27.934-2.127-59.192zM813.059 231h-141.23L671.221.302h141.838zM752.01 20.335c-6.682-.91-17.616.609-24.298 2.734-6.681 2.428-14.88 6.678-17.918 9.714-3.037 2.732-7.593 8.803-9.719 13.66-2.43 4.553-4.556 13.356-4.556 19.73-.304 6.071.911 14.571 2.429 18.82 1.823 4.25 6.682 10.929 10.63 15.178 4.253 4.25 16.403 12.747 27.033 18.818 10.63 6.374 23.082 15.177 27.335 19.731 4.555 4.553 8.805 12.751 9.716 17.608.607 5.16 0 12.142-1.518 16.088-1.216 3.642-6.985 9.409-12.452 12.444-6.682 4.25-13.364 5.464-21.868 4.553-6.682-.607-17.616-4.857-24.298-9.106-11.844-7.588-12.452-7.589-17.615-2.126q-5.467 5.465-3.037 10.93c1.215 3.339 9.111 9.106 17.615 13.052 8.2 3.946 20.653 7.891 27.335 8.499 6.681.607 17.616-.608 24.297-3.036s15.185-7.284 19.134-10.926c3.948-3.946 9.112-10.321 11.238-14.57 2.127-4.25 3.647-15.18 3.343-24.59-.304-14.266-2.128-19.425-9.417-28.531-5.163-6.375-20.349-18.518-34.32-27.018-13.666-8.498-26.726-18.21-28.853-21.55-2.126-3.34-4.251-9.41-4.858-13.66-.608-4.553 1.821-10.93 6.376-16.09 5.163-6.07 10.631-8.499 19.134-9.41 8.504-.606 16.098 1.215 24.906 6.072l13.059 7.286c7.289-12.14 7.898-16.696 6.38-18.82-1.518-2.126-7.29-6.375-12.757-9.107-5.77-2.732-15.794-5.77-22.476-6.377m138.195 210.363h-66.821V0h66.821zm-44.039-23.072 21.26 1.215V22.766l-22.476-.91zm205.014 23.072H902.351V0h148.829zM909.947 42.497h56.188V207.93h22.779V42.497h56.186l-1.52-19.73-134.849-.91zM1200 230.698h-136.68V0H1200zm-113.9-22.767 100.23 2.123c0-18.513-1.52-21.852-4.55-21.853-2.43-.304-20.05-.304-38.88 0-20.65 0-34.01-.912-34.02-3.036v-59.192c0-3.642 6.08-4.554 34.02-5.161l34.32-.91v-18.213c-52.84 0-68.33-.912-68.34-2.125 0-1.214-.3-14.267-.6-28.838l-.61-26.711 77.14-1.518-1.51-19.73-98.41-.608z" clip-rule="evenodd"/>
</svg>