<svg xmlns="http://www.w3.org/2000/svg" fill="none" viewBox="0 0 1200 269">
  <path fill="currentColor" fill-rule="evenodd" d="M126.054 0c4.807 1.194 10.15 2.605 14.953 3.411 11.047 1.855 27.585 9.167 27.285 22.547-.362 16.173-1.087 32.44-1.372 48.664l-1.349 103.349c-.245 14.836.745 30.107.28 45.034-.254 8.118.315 13.942-1.316 22.067-2.734 3.021-11.785 16.389-14.595 15.666-11.381-2.933-20.351 1.259-30.808 1.466-28.714.568-58.283-2.143-87.182-1.836-4.767.051-26.417.374-29.014-.813C.583 256.796.716 251.802 0 248.32V0zm-22.062 54.018c-7.997-4.212-34.533-3.904-44.175-3.287-1.733.401-2.555.282-3.653 1.729-1.555 8.367-.12 18.527-.132 27.099-.041 31.148 1.394 62.123.563 93.271-.144 5.383-2.2 29.915.191 33.455 1.782 2.638 7.187 3.872 10.19 4.364 5.735.94 34.204 2.242 39.827 1.243 4.54-7.981 5.079-73.093 4.684-85.674-.433-13.821-2.102-27.654-2.82-41.468-.449-8.63.765-18.547-1.645-26.9-.573-1.988-1.212-2.875-3.03-3.832M1037.46 7.943c8.24-.306 17.38.405 25.68.799l56.4 2.533c19.08.75 38.18-1.386 57.13 2.469 5.03 1.024 11.37 9.843 16.14 13.25 1.02 26.472-.61 53.306-.82 79.83-.36 6.697-1.2 14.111-1.5 20.752-.6 12.5 2.74 22.41-6.16 32.649-6.86 7.898-10.82 7.995-20.65 10.629-4.48 1.205-16.4 6.992-6.17 10.756 1.83.672 5.11 7.011 6.02 8.788 10.59 21.554 22.79 42.168 33.8 63.492 13.36 25.811-26.87 10.22-44.98 10.101-4.19-.027-12.78-14.828-14.51-18.158-3.83-7.251-7.7-14.474-11.63-21.668-4.03-7.417-8.73-13.498-12.73-20.91-6.21-11.609-11.62-28.5-22.41-36.682-7.52-4.323-13.52 7.236-13.89 12.647-1.47 21.017.43 42.502.61 63.621.04 6.04 2.04 13.997.34 19.666-.49 1.64-12.31 1.067-14.09 1.484-14 1.584-24.31 3.145-36.65-4.842-5.29-14.505-1.71-20.989-2.44-34.89-.86-22.536-.18-44.385-1-67.006-.63-17.317 2.84-36.734 1.9-54.519-.35-6.523 1.56-14.948 1.36-22.012-.56-20.4.03-40.775-.57-61.183.43-4.686 5.95-11.415 10.82-11.596m80.83 49.498c-10.48-.155-21.64-.633-32.07.252-5.76 4.97-6.53 13.996-7.05 21.128-.54 7.304-2.77 31.996 1.77 37.137 1.98 2.244 4.24 4.363 6.48 6.355 6.48 1.177 31.32 2.513 37.76 1.724 1.8-.222 3.52-.961 5.02-1.989l.24-.171c2.52-2.367 4.77-4.67 6.05-7.953 2.35-6.003 3.46-31.449 3.68-38.923.15-4.957-.49-8.564-4.06-12.272-4.74-4.937-11.37-5.192-17.82-5.288M347.979 1.49c11.691-.04 20.783 4.468 28.812 12.658 2.217 11.78 2.086 22.799 2.284 34.716.471 28.342-1.775 56.577-1.738 84.998-.269 10.546 1.013 21.259.98 31.768-.158 17.407-.008 34.729-.05 52.146-.109 8.209 1.471 16.965-.001 25.081-1.756 9.684-12.988 15.062-21.668 16.662-4.645.856-11.022-1.346-15.813-1.365-20.247-.078-40.456-.363-60.698-.755-17.101.027-39.945 1.66-56.58-1.476-3.414-2.429-11.069-11.279-13.664-14.801-.484-2.636-.524-5.096-.744-7.749-1.644-19.835-1.245-39.574-1.201-59.418a1296 1296 0 0 0-1.521-56.311c-.846-20.88.746-41.02 1.4-61.83.034-11.22-.753-23.185 1.064-34.272 1.63-7.814 10.105-16.653 18.163-17.965 10.231-1.665 22.477-.528 33.091-.553a1166 1166 0 0 0 47.692-.993c13.397-.148 26.795-.494 40.192-.54m-33.047 53.945c-6.397-3.247-30.449-2.319-38.33-1.867-4.49 2.009-6.494 6.953-10.315 9.987-.527 35.44-3.21 70.848-3.196 106.244.004 8.339-1.191 17.011.053 25.275a16.54 16.54 0 0 0 4.605 9.057c3.681 3.771 8.443 4.02 13.415 4.039 8.555.032 17.132-1.018 25.674-.661 3.381-.055 5.183-.844 7.543-3.261 7.431-7.608 6.645-16.506 6.475-26.319l-1.917-73.738c-.237-10.232.714-20.487-.084-30.712-.336-4.296-.875-15.042-3.923-18.044" clip-rule="evenodd"/>
  <path fill="currentColor" d="M637.714 2.546c3.596-.162 19.265.544 21.192 1.658 9.547 5.528 12.726 1.07 21.163 2.408 1.334 1.161 1.945 2.556 1.968 4.36.406 27.483-2.785 55.93 1.839 83.147 1.023 6.04 4.924 10.426 10.094 13.453 5.305-5.097 11.287-16.43 15.129-23.2 6.874-11.285 12.655-22.547 19.577-33.841 6.739-10.989 17.373-35.378 27.561-42.666 9.741-6.973 32.173-3.012 43.448-.148 1.733-1.15 2.033-1.356 4.018-1.922 2.351.534 1.587.076 3.214 1.715 1.105 2.803.018 7.362-1.281 10.012-14.905 30.41-34.946 59.33-50.457 89.287a121.4 121.4 0 0 0-9.847 25.145c2.779 9.839 16.134 32.073 21.58 41.778a3044 3044 0 0 1 28.343 51.874c3.666 5.404 13.443 21.437 15.493 27.374-2.391 3.949-3.766 5.175-7.562 7.53-14.494-.18-34.347-.39-48.259-4.683-5.946-5.973-7.415-12.78-11.146-20.207-.917-1.751-1.651-3.808-2.614-5.513-5.7-10.082-10.553-20.777-15.999-30.949-3.878-7.241-10.758-14.451-15.135-21.483-4.248-6.814-6.651-14.958-14.083-18.932-3.431-1.887-12.203-6.491-12.955.576-1.075 10.11-.928 20.551-.94 30.727a1790 1790 0 0 1-.353 47.655c-.176 12.141 3.196 23.293-15.082 22.294-8.296-.453-33.078.58-39.188-3.268-2.979-3.997-.711-31.191-.652-37.471l.793-86.375c.347-18.241-.535-36.927-.112-55.32-.276-17.815-.017-35.492 1.551-53.26.876-9.966-4.988-20.093 8.702-21.755m-188.281 1.73c7.369-.757 15.086.238 22.591.16 30.737-.093 63.109-1.855 93.536 2.633 13.975 2.062 16.962 17.254 16.997 28.212.05 15.811-.474 29.213-4.142 44.615-4.559 2.855-15.765 7.713-20.861 8.374-9.673 1.256-15.04 4.738-23.694 8.848-.462.22-2.502.073-2.798-.405-6.13-10.021 2.869-26.294.615-37.704-1.409-7.13-19.248-5.742-25.452-6.716-5.077-.798-12.055-1.746-16.998-1.332-3.931.33-7.15 6.465-9.14 9.65-.832 12.159.397 37.499-.205 50.136-.698 14.652-4.215 90.537.79 98.351 4.937 4.192 19.021 4.212 25.776 4.923 21.44 2.26 27.422-.393 26.946-22.049.101-6.29-1.098-21.668.888-26.246 4.06-2.54 32.513 11.494 40.311 13.054 1.022 1.187 8.292 8.486 8.318 8.536 4.804 9.324 1.787 25.706 1.391 36.405-.307 8.289-5.088 22.617-7.664 30.605-4.926 4.468-12.716 6.748-19.05 7.928-6.986 1.3-15.194.272-22.059.947-25.851 2.538-63.624-4.229-87.914-.381-11.612-5.121-19.433-10.238-23.201-23.003-.514-1.739-2.189-6.553-2.165-8.206.981-23.213-.459-47.412 1.154-70.572 1.667-23.929 1.919-46.61 2.065-70.526.114-18.781-.456-37.143-.235-55.82.158-13.397 4.743-19.244 15.346-26.812 3.772-2.738 4.186-2.955 8.854-3.605m397.783 2.317c12.755-1.764 32.291.9 45.798 1.204 26.927.606 54.188-.231 81.068 1.147 2.279.117 4.841.384 6.915 1.379 1.099.529 2.274 1.432 2.732 2.608 1.146 2.954 1.475 19.672.87 23.416-.517 3.215-2.292 6.251-2.48 9.515-.088 1.489.852 3.443 1.322 4.85-6.028 9.567-76.091-.254-83.711 4.563-2.11 4.256-3.808 50.005-2.221 54.788 2.115 2.625 5.493 3.394 8.689 3.855 6.193.895 13.114-.447 19.412-.418 7.356.034 14.73 1.01 22.074.911 3.602-.049 9.459-1.206 12.791-.113.946.311 1.28.781 1.674 1.638 2.268 4.888 1.68 26.425.693 32.638-.523 3.283-1.657 6.383-2.773 9.501-12.79 1.228-18.431-1.941-30.164-2.9-9.183-.751-17.867.072-27.05-1.677-1.657.695-3.36 1.449-4.706 2.673-7.168 6.536-6.95 33.737-7.279 43.608-.564 5.336 4.306 15.383 10.328 16.083 24.348 2.734 48.39 1.29 72.831 3.338 15.311 1.283 7.656 19.662 9.953 31.181.352 13.811-10.229 12.431-18.466 12.516-40.211.411-79.276 1.289-119.399-2.574-4.688-.451-7.508-5.776-7.268-9.788 2.016-33.703-1.768-67.647-1.504-101.449.059-6.881.729-14.196.517-20.992-1.016-32.225 1.698-64.272.876-96.433-.306-11.785-2.867-17.974 8.478-25.068"/>
</svg>