<svg xmlns="http://www.w3.org/2000/svg" fill="none" viewBox="0 0 600 600">
  <path fill="currentColor" d="M301.581 523.248c.79.874 5.501 14.962 6.29 17.23l-4.864.048c-2.179.007-4.362.068-6.54.188 1.821-5.673 3.151-11.806 5.114-17.466m-2.772-364.635c4.901-.676 9.911-.234 14.792.255 20.162 2.018 36.093 9.901 52.083 21.898 5.768 4.326 9.333 8.312 13.807 13.314.499.558 1.013 1.134 1.539 1.719.41.456.812.881 1.206 1.288q.478.49.942.958c1.377 1.392 2.683 2.715 4.002 4.637 14.055 18.827 24.406 39.169 21.273 63.755-2.527 19.858-16.077 41.762-32.235 53.641a514 514 0 0 1-6.728 4.88c-3.599 2.427-9.504 5.324-13.528 6.921-3.619 1.265-6.954 2.38-10.657 3.407-33.913 9.403-70.475-9.099-77.685-44.626q-.168-.824-.343-1.661c-1.338-6.424-2.792-13.412.23-19.534 8.176-5.748 11.048 4.787 13.116 12.376l.332 1.216c.53 1.914 1.02 3.546 1.555 4.536 8.859 16.391 26.001 19.086 41.873 11.251 2.869-2.138 6.14-3.926 8.853-6.328 3.654-3.236 7.23-6.803 10.633-10.294 9.114-11.866 10.441-28.678 6.304-42.716-5.634-6.737-12.16-13.675-18.802-19.388-.994-.857-1.97-1.915-2.956-2.986-1.024-1.111-2.063-2.241-3.144-3.166-6.693-5.731-16.18-10.068-24.895-11.12l-2.825.308c-4.71.434-9.335 1.02-13.99 1.609a795 795 0 0 1-7.735.951q-1.329.142-2.67.283c-8.17.857-16.611 1.743-24.275 4.68-8.675 3.325-14.616 10.419-18.162 18.788-.634 1.497-.914 4.301-1.224 7.402-.763 7.659-1.708 17.136-8.623 13.24l-.333-.196c-.738 3.377-1.684 6.756-2.63 10.138l-.005.017c-.698 2.499-1.397 4.999-2.014 7.502-2.663 10.805-3.887 30.338-.706 40.865 1.428 3.802 5.423 12.681 7.946 15.701 1.644 1.411 3.194 2.71 4.656 3.936 11.033 9.246 17.071 14.308 21.219 31.642l1.111 1.909c9.347 13.054 45.071 29.031 61.182 28.178 10.422 1.13 21.467 1.996 31.921.004 21.28-4.057 45.249-18.492 61.928-32 6.828-5.531 19.573-17.549 22.565-25.652q.13-.352.252-.714l.192-.571c.769-2.303 1.536-4.596 3.796-4.642l.273.148c1.299.758 1.627 1.754 2.125 3.284 3.58 11.052-.966 28.968-6.558 38.661-9.639 16.715-34.747 39.997-51.069 49.897a119.3 119.3 0 0 1-26.103 11.548c-3.335 1.008-9.481 2.463-12.967 2.662-4.975 1.023-13.137 3.124-18.12 3.123l-.472-.006c-3.187.642-14.374.437-18.734.088l-.777-.072c-8.417.544-32.562-3.831-41.163-6.307-32.597-9.371-56.47-26.119-73.164-55.911l-1.186-1.996c-4.911-8.251-6.607-11.099-9.571-21.347-12.102-37.087-14.452-59.227-4.61-96.704.254-.83.493-1.64.727-2.433 1.006-3.412 1.927-6.54 3.637-9.897 1.213-3.534 2.74-6.489 4.276-9.463.991-1.919 1.99-3.853 2.907-5.948 5.279-12.056 10.893-20.25 18.805-30.42 15.545-19.982 32.718-25.639 55.971-31.782 6.415-2.736 34.363-4.47 42.63-4.736M65.431 256.966c21.315-.687 24.526 26.233 3.682 28.265-8.255.062-16.721-3.35-18.05-12.59a13.37 13.37 0 0 1 2.844-10.289c3.023-3.69 6.979-4.992 11.524-5.386M321.838 53.503c19.801 1.308 17.824 31.175.105 32.16-19.461-.482-18.961-30.486-.105-32.16"/>
  <path fill="currentColor" fill-rule="evenodd" d="M292.145.105c165.308-4.33 302.949 125.927 307.727 291.223 4.781 165.295-125.102 303.29-290.381 308.519C143.569 605.098 4.927 474.604.128 308.671-4.67 142.739 126.199 4.452 292.145.105m6.113 508.743-18.214 50.004c3.184-.036 6.844-.155 9.991-.087 1.187-3.187 2.863-7.329 3.866-10.49l.722.043c3.692.183 8.55-.035 12.202-.113l3.857-.045.88 2.288c1.043 2.69 2.431 6.269 2.864 7.904q5.156-.039 10.314-.202c-2.24-4.874-4.713-11.874-6.722-17.079l-12.497-32.349zm-43.799-4.495c-2.189 13.171-5.884 26.555-8.369 39.712a131 131 0 0 1-1.716 7.759c5.914 1.227 16.74 3.242 22.293 4.9l1.804-8.403c-3.508-.38-9.56-1.79-13.09-2.636 2.893-12.279 5.33-27.507 8.496-39.2-2.725-.55-6.868-1.304-9.418-2.132m92.743-1.754c-9.178.969-15.263 7.071-14.104 16.526.422 3.435 1.893 6.165 4.532 8.255 5.354 5.022 18.418 1.191 19.954 9.658.576 3.196-.779 5.36-3.145 7.295-5.531 1.107-7.73-.101-11.509-4.28-1.465 2.444-2.968 4.908-4.4 7.367 2.997 2.45 5.392 4.229 9.168 5.385 4.672.882 9.201.129 13.135-2.611a14.96 14.96 0 0 0 6.248-10.108c1.362-8.911-3.612-16.744-12.873-17.929-5.258-.673-16.226-2.502-9.99-10.112 2.668-3.164 7.302-1.922 10.859.373.804-2.459 1.886-5.47 2.569-7.916-3.319-1.011-6.932-2.06-10.444-1.903m-111.667-2.79c-4.462-6.374-13.067-10.212-20.812-9.147-14.813 2.453-24.922 16.818-22.369 31.482a22.3 22.3 0 0 0 9.18 14.545c11.076 7.665 24.026 4.069 31.235-6.931 1.299-1.98 2.466-4.056 3.672-6.097-5.45-2.358-11.258-5.27-16.777-7.924l-2.346-1.119c-.93 1.973-2.531 5.105-3.282 7.043a182 182 0 0 1 9.566 4.563c-2.432 2.549-6.1 6.231-9.859 5.948-20.829-1.581-11.943-33.214 4.81-33.024 7.543.088 10.851 5.992 11.562 12.765q4.763-.163 9.523-.399c-.764-4.616-1.367-7.797-4.103-11.705m156.87-12.089c-2.424-.342-4.649-.595-7.105-.261-4.851.728-8.651 1.687-11.854 5.913a14 14 0 0 0-2.65 10.538c1.626 10.556 9.653 12.471 18.509 11.36 6.564-.824 9.356.43 10.959 7.01-2.328 8.257-8.564 7.156-14.63 3.212a80 80 0 0 1-2.642 8.106c1.822.85 3.737 1.836 5.649 2.4 14.726 4.12 26.156-10.738 18.088-23.844-3.586-6.541-10.226-7.181-16.777-6.476-3.046.325-8.386.269-9.622-2.883-2.462-6.274 5.36-8.968 10.15-7.365q.591.203 1.172.431c.209-2.694.57-5.508.753-8.141m-94.84-367.5c-99.206 1.214-178.635 82.637-177.39 181.841 1.245 99.208 82.693 178.611 181.897 177.334 99.163-1.276 178.521-82.681 177.279-181.84-1.246-99.161-82.626-178.548-181.786-177.335m190.386 324.744a12.78 12.78 0 0 0-12.357-3.868c-6.757 1.572-11.025 8.249-9.616 15.041 1.41 6.793 7.984 11.217 14.806 9.968a12.78 12.78 0 0 0 9.8-8.464 12.78 12.78 0 0 0-2.633-12.677m-353.755 5.787c-1.549-6.928-8.452-11.263-15.366-9.651-6.824 1.594-11.091 8.387-9.562 15.224 1.528 6.838 8.282 11.169 15.134 9.704 6.943-1.485 11.343-8.349 9.794-15.277m425.446-151.769c-4.938 2.725-23.088 12.547-27.561 13.034-6.049.657-14.786-.744-21.18-.892q-.226 4.697-.39 9.401c6.497.283 16.014.412 22.408 1.648.938.182 4.678 2.801 5.675 3.484l19.294 12.832q.289-5.593.66-11.185c-5.231-2.794-11.223-6.914-16.396-10.047 5.856-2.305 11.774-5.08 17.591-7.536.032-1.447.456-9.701.118-10.535zM64.124 309.769c-1.539.093-3.151.218-4.685.27.099 4.678.642 9.166.776 13.711-3.56.3-7.01.599-10.583.754-.225-4.164-.553-8.394-.782-12.55l-.09-1.777c-2.7.126-5.68.371-8.324.454.313 7.978 1.372 16.066 1.73 24.011 2.497-.203 8.19-.814 10.49-.805l23.994-1.807c4.27-.319 9.554-.856 13.78-.933-.143-2.373-.268-4.808-.42-7.207l-.162-2.383c-7.028.718-14.238 1.042-21.317 1.692-.318-4.474-.586-9.168-1.031-13.61zm19.495-56.966c-5.174-4.005-13.881-6.516-20.364-5.515-14.037 1.903-23.553 12.979-21.464 27.303a23.37 23.37 0 0 0 9.24 15.338c4.997 3.67 13.448 6.043 19.488 5.086 14.333-1.553 23.44-12.614 21.754-27.015a22.47 22.47 0 0 0-8.654-15.197m470.325 3.544q-3.404.366-6.818.674a253 253 0 0 1 1.191 9.931 3436 3436 0 0 0-39.826 5c.444 2.599 1.004 6.854 1.184 9.515 3.599-.584 8.087-1.224 11.725-1.567 7.893-1.216 20.501-2.977 28.353-3.595l.092 1.216c.241 2.831.655 5.627 1.041 8.448a104 104 0 0 1 8.087-.969c-.39-3.188-3.023-26.806-3.965-28.728l-.043-.076zm-51.626-12.92c.512 1.856 2.078 8.239 3.085 9.215 5.09-1.867 13.071-3.814 18.483-5.293a2440 2440 0 0 1 27.77-7.515c-.348-1.301-2.065-8.854-3.017-9.034zM55.601 215.685a154 154 0 0 1-3.222 8.907l30.165 10.864c3.96 1.427 11.942 4.061 15.534 5.768a467 467 0 0 1 4.565-12.955c.943-2.628 2.129-6.282 3.199-8.776-2.137-.663-5.328-1.714-7.466-2.717l-.413-.2a373 373 0 0 1-4.52 12.868c-10.493-4.179-22.218-8.17-33.192-12.085zm470.054-43.855c-14.387 7.035-30.001 14.779-44.517 21.377a237 237 0 0 0 4.153 8.592c9.777-4.641 19.886-9.875 29.721-14.237-2.25 3.925-4.42 8.151-6.432 12.208-4.246 8.56-8.992 17.02-13.109 25.62a369 369 0 0 0 3.112 6.111c4.134-2.395 9.434-4.906 13.835-6.899 10.15-4.596 20.302-10.171 30.458-14.63-1.09-2.279-2.536-5.123-3.564-7.561l-.412-1.017c-9.799 4.918-20.037 9.449-29.753 14.423 1.716-2.866 3.261-5.92 4.761-8.909 4.9-9.743 10.122-19.384 14.938-29.16-.534-1.106-2.318-5.104-3.117-5.855zM85.672 155.963c-1.683 3.246-4.136 7.04-5.595 10.019 3.351 6.644 7.126 16.024 10.18 23.025-4.017-2.143-12.711-7.032-16.979-9.862l-.79-.537c-1.39 2.642-3.177 5.79-4.796 8.335 13.315 7.595 28.861 16.448 41.813 24.51l1.258-2.081c1.176-2.01 2.423-4.256 3.648-6.212-4.263-2.358-15.288-8.439-18.929-11.097 8.274-.437 18.361-1.397 26.697-2.243l6.225-10.737c-2.86.701-8.436 1.144-11.534 1.478q-10.451 1.11-20.887 2.339c-1.355-3.775-8.575-24.648-10.237-26.847zm403.057-30.893c-4.697 4.247-9.807 8.111-14.607 12.138-6.544 5.533-15.815 11.43-16.53 20.876-.651 8.573 8.064 18.846 16.714 19.176 9.548.363 17.208-8.047 24.165-13.52 3.506-2.76 6.86-5.76 10.392-8.518l3.072-2.427a375 375 0 0 0-4.583-5.65l-1.55-1.865c-6.394 5.834-14.504 11.696-20.556 17.117-7.128 6.383-17.703 8.962-18.463-2.622-.394-6.008 22.955-23.36 27.87-27.019a18 18 0 0 1 .521-.38c-1.195-1.497-4.759-6.262-6.303-7.225zm-370.809-1.794c-5.973 1.452-10.532 3.682-13.964 9.154-3.955 6.408-.372 15.765 5.878 19.33 3.199 1.825 6.532 1.472 10.031.502 4.678-1.228 10.046-5.808 14.939-3.379 1.793.89 3.697 3.654 3.593 5.646-.394 7.461-7.389 7.226-12.6 6.421.002 2.275-.174 6.16.679 8.105.72.468.681.425 1.541.535 5.549.068 9.771-.107 14.122-4.174 7.359-6.878 6.847-16.796-.325-23.515-4.782-4.48-9.319-4.914-15.37-2.763-4.473 1.589-14.892 7.906-15.07-1.319-.036-5.132 5.123-6.794 9.314-6.916-.468-1.863-1.348-6.633-2.586-7.607zm321.862-40.307c-11.558 11.772-24.133 23.693-35.971 35.268 2.103 1.435 5.811 4.002 7.688 5.692 6.825-7.004 15.051-15.017 21.567-22.199a1692 1692 0 0 0-6.065 19.3c-.863 2.763-4.925 12.013-1.82 13.491 3.877-.161 22.745-14.597 27.929-17.588l-.819 1.283c-.756 1.22-1.36 2.309-2.123 3.75-2.917 5.306-8.876 16.806-11.99 21.35a571 571 0 0 1 7.853 5.859 4534 4534 0 0 1 23.549-44.391c-1.549-1.135-4.127-2.919-5.492-4.125-8.895 6.199-18.808 12.919-27.905 18.819 2.102-9.114 6.274-23.397 9.094-32.457-1.278-.961-3.41-2.655-4.9-3.665zm-288.533 7.724c-6.428 4.986-13.558 10.268-19.817 15.36l29.69 38.3a2019 2019 0 0 1 19.876-15.488c-1.175-1.381-2.294-2.682-3.39-4.13l-1.78-2.321-12.28 9.664c-2.473-3.198-5.582-7.434-8.205-10.38 3.996-2.804 8.281-6.278 12.172-9.302-1.855-2.106-3.467-4.22-5.179-6.435-3.81 2.971-8.223 6.25-11.889 9.316a540 540 0 0 0-6.519-8.558q6.252-4.735 12.455-9.539c-.803-1.004-4.024-5.252-4.975-6.318zm49.195-27.405c-3.072 1.747-6.475 3.355-9.658 4.93-.345 5.652-.635 13.405-.586 19.07-4.012-2.705-9.287-6.545-13.482-9.773l-1.726-1.342q-4.857 2.626-9.867 4.948c7.404 4.877 14.891 9.888 22.354 14.66.666.446 2.152 1.433 2.554 2.043 3.945 5.997 7.238 13.465 10.415 19.88 2.27-1.328 6.152-3.36 8.627-4.228-2.486-4.454-9.221-16.544-9.924-21.093-.491-3.188.837-14.816.927-18.629.046-1.935.696-8.321.398-10.289zM374.95 53.45a4362 4362 0 0 1-25.121 43.585c2.91 1.116 6.201 2.301 9.059 3.478 4.71-9.078 9.91-17.826 14.401-27.011.058 4.48-1.265 30.954-.136 32.77.901.543 1.234.848 2.29.937 3.648-2.658 13.266-15.64 16.968-19.56.979-1.039 2.735-3.657 3.839-4.28.247.557.231.32.212.683l-6.645 28.124c3.01 1.081 6.149 2.151 9.091 3.385 2.898-16.093 7.196-33.1 10.502-49.24-2.35-.757-3.96-1.37-6.236-2.339-6.841 7.777-15.247 18.752-22.014 25.866.129-11.044.229-22.928.062-33.963-1.362-.539-5.045-2.1-6.272-2.435m-94.758-7.631c-3.334-.738-6.937-1.505-10.375-1.042-14.347 2.107-22.747 14.85-20.634 28.908a26.6 26.6 0 0 0 10.489 17.498 22.12 22.12 0 0 0 16.405 4.059c4.046-.648 7.094-2.273 10.599-4.267l-1.068-7.234c-.155-1.405-.288-2.592-.342-4.013-3.109 3.434-6.438 6.658-11.413 6.72-14.681.178-19.794-20.1-10.339-29.264a12.47 12.47 0 0 1 9.16-3.556c3.833.113 6.161 1.591 9.148 3.56-.485-3.774-.92-7.636-1.63-11.369m41.207-1.652c-6.976.495-12.691 2.463-17.352 7.942-8.795 10.34-8.617 28.488 2.089 37.49 4.941 4.153 9.967 5.217 16.177 5.518 2.347-.172 4.019-.343 6.298-.985 18.526-5.222 22.902-32.574 8.614-44.54-4.735-3.968-9.716-5.186-15.826-5.425" clip-rule="evenodd"/>
</svg>